<svg width="126" height="23" viewBox="0 0 126 23" fill="none" xmlns="http://www.w3.org/2000/svg">
<path d="M16.5973 2.30179L9.67231 9.22636C9.59581 9.28779 9.52047 9.35386 9.44906 9.42527C8.91703 9.95776 8.65252 10.6558 8.65507 11.3538C8.65136 12.0528 8.91541 12.7543 9.44906 13.287C9.52047 13.3582 9.59534 13.424 9.67115 13.485L16.5973 20.4114C17.657 21.4706 19.3751 21.4706 20.4347 20.4114C21.4944 19.352 21.4944 17.6344 20.4347 16.574L15.2173 11.3564L20.4347 6.13916C21.4944 5.0795 21.4944 3.36192 20.4347 2.30156C19.3753 1.24189 17.657 1.24189 16.5973 2.30179Z" fill="#00ADEF"/>
<path d="M54.4231 14.9006C54.4231 12.5715 52.5377 10.6854 50.2079 10.6854C47.923 10.6854 45.9922 12.6598 45.9922 14.9006V20.4466H44.6617V3.80835H45.9922V11.3067C47.0129 10.1089 48.5214 9.35427 50.2079 9.35427C53.2694 9.35427 55.754 11.8387 55.754 14.9006V20.4466H54.4231V14.9006Z" fill="#00275A" stroke="#00275A" stroke-width="0.463647" stroke-miterlimit="10"/>
<path d="M63.5183 19.1159C64.6714 19.1159 65.7361 18.6494 66.4912 17.8955L67.4442 18.8055C66.4462 19.825 65.0481 20.4463 63.518 20.4463C60.4566 20.4463 57.9714 17.9614 57.9714 14.9004C57.9714 11.8385 60.4566 9.354 63.518 9.354C66.5786 9.354 69.0635 11.8385 69.0635 14.9004V15.5662H59.3471C59.6795 17.5854 61.411 19.1159 63.5183 19.1159ZM59.3473 14.235H67.6658C67.3557 12.2161 65.6253 10.6854 63.5183 10.6854C61.411 10.6854 59.6795 12.2161 59.3473 14.235Z" fill="#00275A" stroke="#00275A" stroke-width="0.463647" stroke-miterlimit="10"/>
<path d="M71.2816 3.80811H72.6127V20.4463H71.2816V3.80811Z" fill="#00275A" stroke="#00275A" stroke-width="0.463647" stroke-miterlimit="10"/>
<path d="M74.8306 3.80811H76.1617V20.4463H74.8306V3.80811Z" fill="#00275A" stroke="#00275A" stroke-width="0.463647" stroke-miterlimit="10"/>
<path d="M81.0397 14.9153L86.5114 18.6396V20.4464L78.3958 14.9246L86.5114 9.35413V11.0977L81.0397 14.9153Z" fill="#00ADEF" stroke="#00ADEF" stroke-width="0.463647" stroke-miterlimit="10"/>
<path d="M93.5669 9.35413C96.6279 9.35413 99.1125 11.8386 99.1125 14.9005C99.1125 17.9615 96.6279 20.4464 93.5669 20.4464C90.5047 20.4464 88.02 17.9615 88.02 14.9005C88.02 11.8388 90.5047 9.35413 93.5669 9.35413ZM93.5669 19.116C95.8953 19.116 97.7812 17.2296 97.7812 14.9005C97.7812 12.5714 95.8953 10.6853 93.5669 10.6853C91.237 10.6853 89.3507 12.5714 89.3507 14.9005C89.3507 17.2296 91.237 19.116 93.5669 19.116Z" fill="#00ADEF" stroke="#00ADEF" stroke-width="0.463647" stroke-miterlimit="10"/>
<path d="M112.423 20.4466H111.091V18.5169C110.071 19.6924 108.562 20.4466 106.876 20.4466C103.815 20.4466 101.33 17.9616 101.33 14.9006C101.33 11.8387 103.815 9.35427 106.876 9.35427C108.562 9.35427 110.07 10.1086 111.091 11.3067V3.80835H112.423V20.4466ZM106.876 10.6854C104.547 10.6854 102.661 12.5715 102.661 14.9006C102.661 17.2298 104.547 19.1161 106.876 19.1161C109.205 19.1161 111.091 17.2298 111.091 14.9006C111.091 12.4823 109.161 10.6854 106.876 10.6854Z" fill="#00ADEF" stroke="#00ADEF" stroke-width="0.463647" stroke-miterlimit="10"/>
<path d="M120.186 19.116C121.34 19.116 122.404 18.6496 123.158 17.8957L124.113 18.8056C123.114 19.8251 121.716 20.4464 120.186 20.4464C117.124 20.4464 114.639 17.9615 114.639 14.9005C114.639 11.8386 117.124 9.35413 120.186 9.35413C123.247 9.35413 125.733 11.8386 125.733 14.9005V15.5663H116.015C116.348 17.5855 118.079 19.116 120.186 19.116ZM116.015 14.2352H124.335C124.024 12.2162 122.293 10.6855 120.186 10.6855C118.079 10.6855 116.348 12.2162 116.015 14.2352Z" fill="#00ADEF" stroke="#00ADEF" stroke-width="0.463647" stroke-miterlimit="10"/>
<path d="M31.5937 10.8167C31.5454 10.7173 31.5005 10.6148 31.4611 10.5123H32.938C33.3358 11.0638 34.0018 11.3323 34.9665 11.3323H39.5471C40.3823 11.3323 41.7563 11.7633 42.4377 13.1918H40.8555C40.3281 12.6701 39.6679 12.646 39.5471 12.646H34.9665C32.9227 12.646 32.0035 11.6515 31.5937 10.8167Z" fill="#00275A" stroke="#00275A" stroke-width="0.463647" stroke-miterlimit="10"/>
<path d="M42.8503 15.2739C42.8503 16.9073 42.8172 18.8996 40.3728 18.8996H40.0777C39.1254 18.8996 38.3026 18.8938 37.9528 19.2402C37.7509 19.4421 37.6456 19.8339 37.6456 20.3974H36.3314C36.3256 20.1533 36.2018 18.8996 34.3064 18.8996C31.841 18.8996 31.1298 18.3152 31.1298 16.2837V14.9426H32.444V16.2837C32.444 16.8172 32.4741 17.2029 32.6188 17.3295C32.8086 17.5015 33.3752 17.5854 34.3064 17.5854C35.533 17.5854 36.3405 17.9835 36.853 18.5051C36.907 18.4355 36.9645 18.3722 37.0248 18.3089C37.7602 17.5766 38.887 17.5796 40.0835 17.5854H40.3728C41.3706 17.5854 41.5301 17.281 41.5333 15.2739H42.8503Z" fill="#00275A" stroke="#00275A" stroke-width="0.463647" stroke-miterlimit="10"/>
<path d="M42.8503 7.61311V8.91503H41.5333V7.61311C41.5333 6.9589 41.4035 6.64873 40.2101 6.64873C40.0777 6.64873 39.9391 6.65475 39.7972 6.66077C38.9443 6.68488 37.8837 6.71804 37.1032 5.98571C37.0127 5.90132 36.9312 5.81091 36.856 5.71146C36.4735 6.25091 35.9155 6.64873 35.1322 6.64873H33.1853C33.0013 6.64873 32.444 6.64872 32.444 8.10736V8.15257C32.444 8.23996 32.444 8.33037 32.447 8.42982H31.1328C31.1298 8.33037 31.1298 8.23695 31.1298 8.15257V8.10736C31.1298 5.60575 32.5675 5.33474 33.1853 5.33474H35.1322C36.0454 5.33474 36.2501 3.58656 36.2531 3.56848L37.564 3.61392C37.5851 4.29803 37.733 4.77118 38.004 5.02735C38.3865 5.38899 39.0827 5.36789 39.755 5.34378C39.9117 5.34077 40.0656 5.33474 40.2101 5.33474C40.861 5.33451 42.8503 5.33451 42.8503 7.61311Z" fill="#00275A" stroke="#00275A" stroke-width="0.463647" stroke-miterlimit="10"/>
<path d="M4.21987 21.959C3.29374 21.959 2.42301 21.5985 1.7688 20.9439C0.417039 19.5912 0.417039 17.3916 1.7688 16.0403L6.45326 11.3561L1.7688 6.67164C1.11413 6.01673 0.753418 5.146 0.753418 4.21986C0.753418 3.29373 1.11413 2.423 1.7688 1.76833C2.42301 1.11366 3.29374 0.753174 4.21987 0.753174C5.14601 0.753174 6.01674 1.11366 6.67118 1.76833L13.5726 8.66856C13.6628 8.74298 13.7441 8.81693 13.8206 8.89366C14.4783 9.55042 14.8393 10.4269 14.8346 11.3603C14.8381 12.2866 14.4771 13.162 13.8192 13.8199C13.7455 13.8943 13.6623 13.9692 13.5684 14.0462L6.67118 20.9439C6.01674 21.5985 5.14601 21.959 4.21987 21.959Z" fill="#00275A"/>
<path d="M4.21988 1.50685C4.91443 1.50685 5.60874 1.77159 6.13846 2.30131L13.0665 9.22844C13.1423 9.28987 13.2163 9.35501 13.2865 9.42571C13.8202 9.95844 14.0844 10.6583 14.0812 11.357C14.0838 12.0551 13.8199 12.7542 13.2865 13.2872C13.2151 13.3593 13.1405 13.4242 13.0635 13.4859L6.13846 20.4111C5.60874 20.9409 4.91443 21.2056 4.21988 21.2056C3.52557 21.2056 2.83103 20.9409 2.30154 20.4111C1.24211 19.351 1.24118 17.6332 2.30154 16.5728L7.51874 11.3561L2.30154 6.13892C1.24211 5.07926 1.24211 3.36074 2.30154 2.30131C2.83103 1.77159 3.52557 1.50685 4.21988 1.50685ZM4.21988 0C3.09252 0 2.0324 0.439071 1.23585 1.23608C0.439073 2.03263 0 3.09253 0 4.22012C0 5.34748 0.438841 6.4076 1.23585 7.20461L5.38735 11.3563L1.23608 15.5078C-0.409404 17.1529 -0.409866 19.8304 1.23585 21.4766C2.03263 22.2738 3.09252 22.7127 4.21988 22.7127C5.34724 22.7127 6.40737 22.2738 7.20392 21.4768L14.0761 14.6044C14.1781 14.5196 14.2706 14.4354 14.3566 14.3485C15.1532 13.5524 15.592 12.4867 15.5883 11.3519C15.5934 10.2283 15.1541 9.1612 14.3515 8.35956C14.2683 8.2761 14.1788 8.19404 14.081 8.11197L7.20392 1.23585C6.40714 0.438841 5.34724 0 4.21988 0Z" fill="white"/>
<path d="M11.0764 18.5253L10.4791 17.9279L7.49925 20.9069L8.0965 21.5043L11.0764 18.5253Z" fill="#00ADEF"/>
<path d="M11.2703 4.18704L8.29041 1.20801L7.69315 1.80543L10.673 4.78446L11.2703 4.18704Z" fill="#00ADEF"/>
</svg>
